# xmcd
# 
# Track frame offsets:
#     150
#     51146
#     89895
#     135958
#     181284
#     200028
#     241094
# 
# Disc length: 3802
# 
# Revision: 1
# Processed by: cddbd v1.5.2PL0 Copyright (c) Steve Scherf et al.
# Submitted via: BonkEnc v1.0.8
# 
DISCID=5d0ed807
DTITLE=Stefan Wolf - TKKG -143 Das unheimliche Haus
DYEAR=2004
DGENRE=Speech
TTITLE0=Die Beute von damals 
TTITLE1=Japanischer Monsterfisch
TTITLE2=Missglückte Verfolgung
TTITLE3=Einbrecher im Haus
TTITLE4=Cindy packt aus
TTITLE5=Geheimtür
TTITLE6=x
EXTD=
EXTT0=
EXTT1=
EXTT2=
EXTT3=
EXTT4=
EXTT5=
EXTT6=
PLAYORDER=
